<?xml version="1.0" encoding="UTF-8" standalone="no"?>
<!DOCTYPE svg PUBLIC "-//W3C//DTD SVG 1.1//EN" "http://www.w3.org/Graphics/SVG/1.1/DTD/svg11.dtd">
<svg width="100%" height="100%" viewBox="0 0 814 748" version="1.1" xmlns="http://www.w3.org/2000/svg" xmlns:xlink="http://www.w3.org/1999/xlink" xml:space="preserve" xmlns:serif="http://www.serif.com/" style="fill-rule:evenodd;clip-rule:evenodd;stroke-linejoin:round;stroke-miterlimit:2;">
    <g transform="matrix(1,0,0,1,-894.787,0)">
        <g id="logo_dark" transform="matrix(0.6107,0,0,0.665411,1409.67,2.50074)">
            <rect x="-843.099" y="-3.758" width="1331.69" height="1123.29" style="fill:none;"/>
            <g id="ellipse" transform="matrix(54.5275,0,0,50.0442,-4743.74,-5980.87)">
                <path d="M82.521,135.827C82.521,138.276 80.536,140.261 78.087,140.261C75.639,140.261 73.654,138.276 73.654,135.827C73.654,133.379 75.639,131.394 78.087,131.394C80.536,131.394 82.521,133.379 82.521,135.827Z" style="fill:rgb(254,58,45);fill-rule:nonzero;"/>
            </g>
            <g transform="matrix(13.97,0,0,12.8214,-1110.25,-307.191)">
                <path d="M57.164,30.027C58.786,30.004 73.833,29.996 77.951,29.996C86.278,52.047 94.603,74.094 103.023,96.393C104.074,99.176 105.126,101.962 106.18,104.753L85.396,104.753" style="fill:rgb(35,57,91);fill-rule:nonzero;"/>
            </g>
            <g id="ellipse1" serif:id="ellipse" transform="matrix(54.5275,0,0,50.0442,-4743.74,-5980.87)">
                <path d="M82.521,135.827C82.521,138.276 80.536,140.261 78.087,140.261C75.639,140.261 73.654,138.276 73.654,135.827C73.654,133.379 75.639,131.394 78.087,131.394C80.536,131.394 82.521,133.379 82.521,135.827Z" style="fill:rgb(254,58,45);fill-rule:nonzero;"/>
            </g>
            <g transform="matrix(13.97,0,0,12.8214,-1110.25,-307.191)">
                <path d="M57.164,30.027C58.786,30.004 73.833,29.996 77.951,29.996C86.278,52.047 94.603,74.094 103.023,96.393C104.074,99.176 105.126,101.962 106.18,104.753L85.396,104.753" style="fill:rgb(255,253,248);fill-rule:nonzero;"/>
            </g>
        </g>
    </g>
</svg>
