<?xml version="1.0" encoding="UTF-8" standalone="no"?>
<!DOCTYPE svg PUBLIC "-//W3C//DTD SVG 1.1//EN" "http://www.w3.org/Graphics/SVG/1.1/DTD/svg11.dtd">
<svg width="100%" height="100%" viewBox="0 0 1182 414" version="1.1" xmlns="http://www.w3.org/2000/svg" xmlns:xlink="http://www.w3.org/1999/xlink" xml:space="preserve" xmlns:serif="http://www.serif.com/" style="fill-rule:evenodd;clip-rule:evenodd;stroke-linejoin:round;stroke-miterlimit:2;">
    <g transform="matrix(1,0,0,1,-1304.91,0)">
        <g id="stack_black" transform="matrix(1.04143,0,0,0.596275,-254.048,-97.8459)">
            <rect x="1496.94" y="164.095" width="1134.12" height="693.281" style="fill:none;"/>
            <g transform="matrix(0.960219,0,0,1.67708,-68.518,323.488)">
                <g transform="matrix(208.333,0,0,208.333,1640.91,261.48)">
                    <path d="M0.277,-0.322L0.457,-0.065L0.638,-0.322L0.677,-0L0.883,-0L0.762,-0.735L0.457,-0.332L0.153,-0.735L0.032,-0L0.238,-0L0.277,-0.322Z" style="fill:rgb(34,29,35);fill-rule:nonzero;"/>
                </g>
                <g transform="matrix(208.333,0,0,208.333,1833.61,261.48)">
                    <path d="M0.195,-0.113L0.565,-0.113L0.56,-0.256L0.201,-0.256L0.195,-0.113ZM0.378,-0.413L0.471,-0.203L0.46,-0.153L0.54,-0L0.76,-0L0.378,-0.747L-0.003,-0L0.217,-0L0.298,-0.16L0.286,-0.203L0.378,-0.413Z" style="fill:rgb(34,29,35);fill-rule:nonzero;"/>
                </g>
                <g transform="matrix(208.333,0,0,208.333,1980.7,261.48)">
                    <path d="M0.245,-0.35C0.245,-0.389 0.254,-0.423 0.272,-0.451C0.289,-0.478 0.313,-0.499 0.342,-0.514C0.371,-0.528 0.404,-0.535 0.439,-0.535C0.472,-0.535 0.501,-0.531 0.526,-0.522C0.551,-0.513 0.573,-0.502 0.592,-0.489C0.611,-0.475 0.628,-0.46 0.643,-0.445L0.643,-0.649C0.616,-0.67 0.586,-0.686 0.553,-0.699C0.52,-0.712 0.477,-0.718 0.426,-0.718C0.368,-0.718 0.315,-0.709 0.266,-0.692C0.217,-0.675 0.176,-0.65 0.141,-0.617C0.106,-0.584 0.08,-0.546 0.061,-0.501C0.042,-0.456 0.032,-0.405 0.032,-0.35C0.032,-0.295 0.042,-0.245 0.061,-0.2C0.08,-0.155 0.106,-0.116 0.141,-0.083C0.176,-0.05 0.217,-0.025 0.266,-0.008C0.315,0.009 0.368,0.018 0.426,0.018C0.477,0.018 0.52,0.012 0.553,-0.002C0.586,-0.015 0.616,-0.031 0.643,-0.051L0.643,-0.255C0.628,-0.24 0.611,-0.225 0.592,-0.212C0.573,-0.198 0.551,-0.187 0.526,-0.178C0.501,-0.169 0.472,-0.165 0.439,-0.165C0.404,-0.165 0.371,-0.172 0.342,-0.187C0.313,-0.201 0.289,-0.222 0.272,-0.25C0.254,-0.277 0.245,-0.311 0.245,-0.35Z" style="fill:rgb(34,29,35);fill-rule:nonzero;"/>
                </g>
                <g transform="matrix(208.333,0,0,208.333,2129.66,261.48)">
                    <path d="M0.119,-0.279L0.663,-0.279L0.663,-0.452L0.119,-0.452L0.119,-0.279ZM0.542,-0.7L0.542,-0L0.736,-0L0.736,-0.7L0.542,-0.7ZM0.072,-0.7L0.072,-0L0.266,-0L0.266,-0.7L0.072,-0.7Z" style="fill:rgb(34,29,35);fill-rule:nonzero;"/>
                </g>
                <g transform="matrix(208.333,0,0,208.333,2300.07,261.48)">
                    <rect x="0.072" y="-0.7" width="0.198" height="0.7" style="fill:rgb(34,29,35);fill-rule:nonzero;"/>
                </g>
                <g transform="matrix(208.333,0,0,208.333,2373.41,261.48)">
                    <path d="M0.541,-0.7L0.541,-0.344L0.072,-0.735L0.072,-0L0.258,-0L0.258,-0.356L0.727,0.035L0.727,-0.7L0.541,-0.7Z" style="fill:rgb(34,29,35);fill-rule:nonzero;"/>
                </g>
                <g transform="matrix(208.333,0,0,208.333,2541.95,261.48)">
                    <path d="M0.204,-0L0.557,-0L0.557,-0.157L0.204,-0.157L0.204,-0ZM0.204,-0.543L0.557,-0.543L0.557,-0.7L0.204,-0.7L0.204,-0.543ZM0.204,-0.288L0.537,-0.288L0.537,-0.44L0.204,-0.44L0.204,-0.288ZM0.072,-0.7L0.072,-0L0.258,-0L0.258,-0.7L0.072,-0.7Z" style="fill:rgb(34,29,35);fill-rule:nonzero;"/>
                </g>
                <g transform="matrix(208.333,0,0,208.333,2672.99,261.48)">
                    <path d="M0.164,-0.256L0.032,-0.16C0.047,-0.125 0.07,-0.094 0.1,-0.066C0.13,-0.037 0.166,-0.015 0.207,0.002C0.248,0.018 0.292,0.026 0.34,0.026C0.374,0.026 0.407,0.021 0.44,0.012C0.473,0.002 0.502,-0.012 0.528,-0.032C0.553,-0.05 0.574,-0.074 0.589,-0.103C0.604,-0.132 0.611,-0.165 0.611,-0.202C0.611,-0.23 0.607,-0.255 0.598,-0.278C0.589,-0.301 0.577,-0.321 0.561,-0.339C0.545,-0.356 0.526,-0.372 0.505,-0.385C0.483,-0.398 0.459,-0.409 0.433,-0.418C0.403,-0.429 0.377,-0.439 0.354,-0.448C0.331,-0.456 0.313,-0.466 0.3,-0.477C0.287,-0.487 0.28,-0.5 0.28,-0.515C0.28,-0.528 0.286,-0.539 0.297,-0.547C0.308,-0.555 0.324,-0.559 0.343,-0.559C0.358,-0.559 0.373,-0.556 0.388,-0.55C0.403,-0.544 0.417,-0.536 0.43,-0.525C0.443,-0.514 0.454,-0.5 0.464,-0.483L0.61,-0.564C0.597,-0.588 0.579,-0.612 0.556,-0.636C0.533,-0.659 0.503,-0.679 0.467,-0.695C0.431,-0.71 0.388,-0.718 0.339,-0.718C0.292,-0.718 0.249,-0.71 0.21,-0.694C0.171,-0.678 0.14,-0.655 0.117,-0.625C0.094,-0.594 0.082,-0.557 0.082,-0.513C0.082,-0.478 0.089,-0.448 0.102,-0.423C0.115,-0.398 0.131,-0.376 0.151,-0.359C0.17,-0.342 0.191,-0.328 0.212,-0.317C0.233,-0.306 0.253,-0.297 0.27,-0.29C0.305,-0.277 0.333,-0.265 0.353,-0.256C0.372,-0.247 0.386,-0.238 0.394,-0.229C0.402,-0.22 0.406,-0.208 0.406,-0.195C0.406,-0.176 0.399,-0.162 0.385,-0.153C0.371,-0.143 0.353,-0.138 0.332,-0.138C0.31,-0.138 0.289,-0.143 0.268,-0.152C0.247,-0.161 0.228,-0.175 0.211,-0.193C0.194,-0.21 0.178,-0.231 0.164,-0.256Z" style="fill:rgb(34,29,35);fill-rule:nonzero;"/>
                </g>
            </g>
            <g transform="matrix(0.960219,0,0,1.67708,-61.5044,31.9302)">
                <g transform="matrix(212.5,0,0,212.5,1640.91,261.48)">
                    <path d="M0.195,-0.113L0.565,-0.113L0.56,-0.256L0.201,-0.256L0.195,-0.113ZM0.378,-0.413L0.471,-0.203L0.46,-0.153L0.54,-0L0.76,-0L0.378,-0.747L-0.003,-0L0.217,-0L0.298,-0.16L0.286,-0.203L0.378,-0.413Z" style="fill:rgb(34,29,35);fill-rule:nonzero;"/>
                </g>
                <g transform="matrix(212.5,0,0,212.5,1804.32,261.48)">
                    <path d="M0.216,-0.342L0.353,-0.342C0.403,-0.342 0.448,-0.349 0.487,-0.363C0.526,-0.376 0.556,-0.397 0.579,-0.424C0.602,-0.451 0.613,-0.483 0.613,-0.521C0.613,-0.561 0.602,-0.594 0.579,-0.621C0.556,-0.647 0.526,-0.667 0.487,-0.68C0.448,-0.693 0.403,-0.7 0.353,-0.7L0.072,-0.7L0.072,-0L0.371,-0C0.43,-0 0.48,-0.007 0.522,-0.02C0.564,-0.033 0.596,-0.053 0.619,-0.082C0.642,-0.111 0.653,-0.148 0.653,-0.195C0.653,-0.231 0.645,-0.262 0.629,-0.288C0.612,-0.313 0.59,-0.334 0.563,-0.351C0.536,-0.367 0.505,-0.379 0.472,-0.387C0.439,-0.394 0.405,-0.398 0.371,-0.398L0.216,-0.398L0.216,-0.292L0.347,-0.292C0.362,-0.292 0.375,-0.291 0.388,-0.289C0.4,-0.287 0.411,-0.283 0.421,-0.278C0.43,-0.273 0.438,-0.266 0.443,-0.257C0.448,-0.248 0.451,-0.237 0.451,-0.224C0.451,-0.203 0.446,-0.188 0.437,-0.177C0.428,-0.166 0.415,-0.158 0.4,-0.154C0.384,-0.15 0.366,-0.148 0.347,-0.148L0.266,-0.148L0.266,-0.552L0.329,-0.552C0.356,-0.552 0.376,-0.547 0.39,-0.537C0.404,-0.527 0.411,-0.511 0.411,-0.49C0.411,-0.476 0.408,-0.464 0.402,-0.454C0.395,-0.444 0.386,-0.436 0.374,-0.431C0.362,-0.426 0.347,-0.423 0.329,-0.423L0.216,-0.423L0.216,-0.342Z" style="fill:rgb(34,29,35);fill-rule:nonzero;"/>
                </g>
                <g transform="matrix(212.5,0,0,212.5,1954.56,261.48)">
                    <path d="M0.164,-0.256L0.032,-0.16C0.047,-0.125 0.07,-0.094 0.1,-0.066C0.13,-0.037 0.166,-0.015 0.207,0.002C0.248,0.018 0.292,0.026 0.34,0.026C0.374,0.026 0.407,0.021 0.44,0.012C0.473,0.002 0.502,-0.012 0.528,-0.032C0.553,-0.05 0.574,-0.074 0.589,-0.103C0.604,-0.132 0.611,-0.165 0.611,-0.202C0.611,-0.23 0.607,-0.255 0.598,-0.278C0.589,-0.301 0.577,-0.321 0.561,-0.339C0.545,-0.356 0.526,-0.372 0.505,-0.385C0.483,-0.398 0.459,-0.409 0.433,-0.418C0.403,-0.429 0.377,-0.439 0.354,-0.448C0.331,-0.456 0.313,-0.466 0.3,-0.477C0.287,-0.487 0.28,-0.5 0.28,-0.515C0.28,-0.528 0.286,-0.539 0.297,-0.547C0.308,-0.555 0.324,-0.559 0.343,-0.559C0.358,-0.559 0.373,-0.556 0.388,-0.55C0.403,-0.544 0.417,-0.536 0.43,-0.525C0.443,-0.514 0.454,-0.5 0.464,-0.483L0.61,-0.564C0.597,-0.588 0.579,-0.612 0.556,-0.636C0.533,-0.659 0.503,-0.679 0.467,-0.695C0.431,-0.71 0.388,-0.718 0.339,-0.718C0.292,-0.718 0.249,-0.71 0.21,-0.694C0.171,-0.678 0.14,-0.655 0.117,-0.625C0.094,-0.594 0.082,-0.557 0.082,-0.513C0.082,-0.478 0.089,-0.448 0.102,-0.423C0.115,-0.398 0.131,-0.376 0.151,-0.359C0.17,-0.342 0.191,-0.328 0.212,-0.317C0.233,-0.306 0.253,-0.297 0.27,-0.29C0.305,-0.277 0.333,-0.265 0.353,-0.256C0.372,-0.247 0.386,-0.238 0.394,-0.229C0.402,-0.22 0.406,-0.208 0.406,-0.195C0.406,-0.176 0.399,-0.162 0.385,-0.153C0.371,-0.143 0.353,-0.138 0.332,-0.138C0.31,-0.138 0.289,-0.143 0.268,-0.152C0.247,-0.161 0.228,-0.175 0.211,-0.193C0.194,-0.21 0.178,-0.231 0.164,-0.256Z" style="fill:rgb(34,29,35);fill-rule:nonzero;"/>
                </g>
                <g transform="matrix(212.5,0,0,212.5,2094.81,261.48)">
                    <path d="M0.002,-0.527L0.198,-0.527L0.198,-0L0.392,-0L0.392,-0.527L0.588,-0.527L0.588,-0.7L0.002,-0.7L0.002,-0.527Z" style="fill:rgb(34,29,35);fill-rule:nonzero;"/>
                </g>
                <g transform="matrix(212.5,0,0,212.5,2222.73,261.48)">
                    <path d="M0.261,-0.309L0.445,-0L0.671,-0L0.461,-0.309L0.261,-0.309ZM0.072,-0.7L0.072,-0L0.266,-0L0.266,-0.7L0.072,-0.7ZM0.196,-0.536L0.331,-0.536C0.352,-0.536 0.369,-0.533 0.383,-0.527C0.397,-0.521 0.408,-0.512 0.416,-0.501C0.423,-0.489 0.427,-0.475 0.427,-0.458C0.427,-0.441 0.423,-0.427 0.416,-0.415C0.408,-0.403 0.397,-0.394 0.383,-0.388C0.369,-0.382 0.352,-0.379 0.331,-0.379L0.196,-0.379L0.196,-0.232L0.347,-0.232C0.411,-0.232 0.464,-0.242 0.506,-0.262C0.547,-0.281 0.578,-0.309 0.599,-0.345C0.619,-0.38 0.629,-0.421 0.629,-0.466C0.629,-0.512 0.619,-0.553 0.599,-0.588C0.578,-0.623 0.547,-0.65 0.506,-0.67C0.464,-0.69 0.411,-0.7 0.347,-0.7L0.196,-0.7L0.196,-0.536Z" style="fill:rgb(34,29,35);fill-rule:nonzero;"/>
                </g>
                <g transform="matrix(212.5,0,0,212.5,2368.29,261.48)">
                    <path d="M0.195,-0.113L0.565,-0.113L0.56,-0.256L0.201,-0.256L0.195,-0.113ZM0.378,-0.413L0.471,-0.203L0.46,-0.153L0.54,-0L0.76,-0L0.378,-0.747L-0.003,-0L0.217,-0L0.298,-0.16L0.286,-0.203L0.378,-0.413Z" style="fill:rgb(34,29,35);fill-rule:nonzero;"/>
                </g>
                <g transform="matrix(212.5,0,0,212.5,2515.13,261.48)">
                    <path d="M0.245,-0.35C0.245,-0.389 0.254,-0.423 0.272,-0.451C0.289,-0.478 0.313,-0.499 0.342,-0.514C0.371,-0.528 0.404,-0.535 0.439,-0.535C0.472,-0.535 0.501,-0.531 0.526,-0.522C0.551,-0.513 0.573,-0.502 0.592,-0.489C0.611,-0.475 0.628,-0.46 0.643,-0.445L0.643,-0.649C0.616,-0.67 0.586,-0.686 0.553,-0.699C0.52,-0.712 0.477,-0.718 0.426,-0.718C0.368,-0.718 0.315,-0.709 0.266,-0.692C0.217,-0.675 0.176,-0.65 0.141,-0.617C0.106,-0.584 0.08,-0.546 0.061,-0.501C0.042,-0.456 0.032,-0.405 0.032,-0.35C0.032,-0.295 0.042,-0.245 0.061,-0.2C0.08,-0.155 0.106,-0.116 0.141,-0.083C0.176,-0.05 0.217,-0.025 0.266,-0.008C0.315,0.009 0.368,0.018 0.426,0.018C0.477,0.018 0.52,0.012 0.553,-0.002C0.586,-0.015 0.616,-0.031 0.643,-0.051L0.643,-0.255C0.628,-0.24 0.611,-0.225 0.592,-0.212C0.573,-0.198 0.551,-0.187 0.526,-0.178C0.501,-0.169 0.472,-0.165 0.439,-0.165C0.404,-0.165 0.371,-0.172 0.342,-0.187C0.313,-0.201 0.289,-0.222 0.272,-0.25C0.254,-0.277 0.245,-0.311 0.245,-0.35Z" style="fill:rgb(34,29,35);fill-rule:nonzero;"/>
                </g>
                <g transform="matrix(212.5,0,0,212.5,2667.49,261.48)">
                    <path d="M0.002,-0.527L0.198,-0.527L0.198,-0L0.392,-0L0.392,-0.527L0.588,-0.527L0.588,-0.7L0.002,-0.7L0.002,-0.527Z" style="fill:rgb(34,29,35);fill-rule:nonzero;"/>
                </g>
            </g>
        </g>
    </g>
</svg>
